# xmcd CD database file
#
# Track frame offsets:
#	187
#	31887
#	45042
#	71332
#	81400
#	99222
#	114440
#	131475
#	154947
#	178837
#	198975
#	225155
#
# Disc length: 3220 seconds
#
# Revision: 0
# Processed by: cddbd v1.5.1PL2 Copyright (c) Steve Scherf et al.
# Submitted via: CDex 1.51
#
DISCID=880c920c
DTITLE=MICH LIVE - ONCE
DYEAR=1990
DGENRE=Instrumental
TTITLE0=ONCE
TTITLE1=青い空/WIND
TTITLE2=ROMANCE
TTITLE3=PEOPLE
TTITLE4=THERE'LL BE SOMEONE WHO LOVES YOU
TTITLE5=TELL ME WHY
TTITLE6=楽しい日/SWALLOW
TTITLE7=AFTER THE BEST YOU'VE TRIED
TTITLE8=I MEAN IT'S TOO MUCH
TTITLE9=THE OCEAN IN DREAM
TTITLE10=いつも心は上天気/HEAVEN'LL SAVE YOU
TTITLE11=夢みる想い/DOLL
EXTD=YEAR: 1990
EXTT0=
EXTT1=
EXTT2=
EXTT3=
EXTT4=
EXTT5=
EXTT6=
EXTT7=
EXTT8=
EXTT9=
EXTT10=
EXTT11=
PLAYORDER=
